<?xml version="1.0" encoding="UTF-8"?>
<svg version="1.1" xmlns="http://www.w3.org/2000/svg" width="966" height="1029">
<path d="M0 0 C3.22033008 1.2561232 6.03618247 2.5300265 8.89599609 4.4765625 C9.63220184 4.97414063 10.36840759 5.47171875 11.12692261 5.984375 C11.91777252 6.52578125 12.70862244 7.0671875 13.5234375 7.625 C14.36415802 8.19476563 15.20487854 8.76453125 16.07107544 9.3515625 C17.88901203 10.58423355 19.70551965 11.81901412 21.52075195 13.05566406 C26.40065524 16.37989208 31.29100594 19.68870165 36.1796875 23 C37.17679749 23.67603271 38.17390747 24.35206543 39.20123291 25.04858398 C48.60002406 31.41728913 58.04458797 37.7158031 67.5 44 C82.00026747 53.64187227 96.44219858 63.36732226 110.86541748 73.12399292 C126.83668146 83.92232558 142.91139912 94.55849112 159.04760742 105.10864258 C167.66744586 110.75436236 176.18710732 116.49597638 184.57525635 122.48062134 C192.45295756 128.0768483 200.53818752 133.35137985 208.62503052 138.63867188 C224.68301508 149.14262635 240.66417239 159.75605064 256.5625 170.5 C257.44557831 171.09658417 258.32865662 171.69316833 259.23849487 172.30783081 C266.38755335 177.13851307 273.53245615 181.97532757 280.67712402 186.8125 C286.9286171 191.04457811 293.18195165 195.27391827 299.4375 199.5 C300.31421356 200.09247528 301.19092712 200.68495056 302.09420776 201.29537964 C317.99186104 212.03282721 333.99193123 222.61130893 350.04858398 233.109375 C358.66814614 238.75477995 367.1874367 244.49621138 375.57525635 250.48062134 C383.45564396 256.07875668 391.54368482 261.35504437 399.63327026 266.64416504 C416.31739006 277.55706245 432.91472417 288.5944596 449.4375 299.75 C450.33402283 300.35488251 451.23054565 300.95976501 452.15423584 301.58297729 C453.89457201 302.75759281 455.63443363 303.9329118 457.3737793 305.10899353 C459.01162209 306.21597647 460.65074048 307.32107496 462.29125977 308.42408752 C465.88749896 310.85002969 469.44523567 313.30344014 472.92626953 315.89257812 C473.52133804 316.32854309 474.11640656 316.76450806 474.72950745 317.21368408 C476.28230757 318.35883946 477.81976018 319.52472775 479.35571289 320.69238281 C481.90679969 322.33152541 481.90679969 322.33152541 484.40731812 321.25498962 C486.84800103 320.07357522 488.92955065 318.80897637 491.12719727 317.2277832 C491.90522202 316.67390427 492.68324677 316.12002533 493.48484802 315.54936218 C494.31613724 314.95170547 495.14742645 314.35404877 496.00390625 313.73828125 C505.59623195 306.93368865 515.35149364 300.41721771 525.19412231 293.98193359 C540.05565166 284.26106007 554.86076295 274.46090851 569.5625 264.5 C570.30433533 263.99757782 571.04617065 263.49515564 571.81048584 262.97750854 C575.61945441 260.39729428 579.42724422 257.8153469 583.234375 255.23242188 C591.83772218 249.39602964 600.44753687 243.56923164 609.0625 237.75 C609.94885132 237.15109955 610.83520264 236.5521991 611.74841309 235.93515015 C627.84876032 225.06260854 644.05159487 214.34920538 660.31079102 203.71582031 C667.6177356 198.92937631 674.90545536 194.14624191 681.9765625 189.015625 C690.04652436 183.16047542 698.39949215 177.74074661 706.7414856 172.28369141 C721.75236186 162.45993768 736.71085421 152.56291489 751.5625 142.5 C752.67443726 141.74691055 752.67443726 141.74691055 753.80883789 140.97860718 C757.61835458 138.39802493 761.42669873 135.81571876 765.234375 133.23242188 C773.83772218 127.39602964 782.44753687 121.56923164 791.0625 115.75 C792.39202698 114.85164932 792.39202698 114.85164932 793.74841309 113.93515015 C809.84876032 103.06260854 826.05159487 92.34920538 842.31079102 81.71582031 C849.6177356 76.92937631 856.90545536 72.14624191 863.9765625 67.015625 C872.04928796 61.15847029 880.40517859 55.7368955 888.75 50.27792358 C906.66567011 38.55439583 924.46968625 26.67527842 942.18556213 14.65235901 C944.83980316 12.85149948 947.49552523 11.05283091 950.15136719 9.2543335 C951.97579195 8.01642564 953.79654087 6.77324037 955.6171875 5.52978516 C956.70257812 4.79421387 957.78796875 4.05864258 958.90625 3.30078125 C960.31874023 2.33845581 960.31874023 2.33845581 961.75976562 1.35668945 C964 0 964 0 966 0 C966.22279463 61.63706312 966.42949049 123.27417276 966.55046082 184.91152954 C966.55225556 185.8236589 966.5540503 186.73578825 966.55589943 187.67555789 C966.59480647 207.49818624 966.63081894 227.32081886 966.66384928 247.14345785 C966.68006478 256.86435696 966.69691996 266.58525491 966.71411133 276.30615234 C966.71666113 277.75717806 966.71666113 277.75717806 966.71926244 279.23751742 C966.77466839 310.59695505 966.87232134 341.95608834 966.99186387 373.31534156 C967.11447787 405.53882179 967.19450838 437.76213357 967.22089487 469.98584315 C967.22464093 474.53632491 967.22887421 479.0868061 967.23340416 483.63728714 C967.23428066 484.53289442 967.23515716 485.4285017 967.23606022 486.3512486 C967.25142773 500.77308951 967.31173544 515.19440983 967.38881644 529.61603838 C967.46533581 544.11180309 967.49458792 558.6070513 967.47551791 573.10301094 C967.46562347 581.71773368 967.49204219 590.33056729 967.57036806 598.94494915 C967.61912356 604.69993334 967.62062765 610.4536809 967.58381358 616.20875053 C967.56418172 619.48882369 967.57218764 622.76460718 967.62348137 626.04444163 C967.92543375 646.54081526 967.92543375 646.54081526 963.1439985 651.69102788 C960.02277657 654.37459594 956.66945041 656.16327049 953 658 C951.6170281 659.03246749 950.25378271 660.09400995 948.94140625 661.21484375 C948.37873047 661.66730469 947.81605469 662.11976563 947.23632812 662.5859375 C946.4077832 663.25496094 946.4077832 663.25496094 945.5625 663.9375 C940.73080219 667.82092067 935.88068528 671.67832483 931 675.5 C926.1430426 679.30428539 921.31277608 683.13997867 916.5 687 C908.24113955 693.62221877 899.91712242 700.15989498 891.57421875 706.67578125 C885.30926651 711.57538635 879.09746294 716.53134917 872.9375 721.5625 C867.15132846 726.28835664 861.28513519 730.87667911 855.34375 735.40625 C851.50113119 738.36211063 847.7524869 741.43107807 844 744.5 C838.19376127 749.24855577 832.30893823 753.85853224 826.34375 758.40625 C822.50112939 761.36211201 818.75252788 764.43112564 815 767.5 C810.19823246 771.42612763 805.37009043 775.30182896 800.4375 779.0625 C795.11492474 783.12342779 789.87524599 787.27635829 784.65600586 791.46899414 C780.45792147 794.83942385 776.23879339 798.18093915 772 801.5 C767.1430426 805.30428539 762.31277608 809.13997867 757.5 813 C749.24113955 819.62221877 740.91712242 826.15989498 732.57421875 832.67578125 C726.30926651 837.57538635 720.09746294 842.53134917 713.9375 847.5625 C708.15132846 852.28835664 702.28513519 856.87667911 696.34375 861.40625 C692.50112939 864.36211201 688.75252788 867.43112564 685 870.5 C680.19823246 874.42612763 675.37009043 878.30182896 670.4375 882.0625 C665.11492474 886.12342779 659.87524599 890.27635829 654.65600586 894.46899414 C650.45792147 897.83942385 646.23879339 901.18093915 642 904.5 C637.1430426 908.30428539 632.31277608 912.13997867 627.5 916 C619.24113955 922.62221877 610.91712242 929.15989498 602.57421875 935.67578125 C596.30926651 940.57538635 590.09746294 945.53134917 583.9375 950.5625 C578.15132846 955.28835664 572.28513519 959.87667911 566.34375 964.40625 C562.50113119 967.36211063 558.7524869 970.43107807 555 973.5 C549.19376127 978.24855577 543.30893823 982.85853224 537.34375 987.40625 C533.50112939 990.36211201 529.75252788 993.43112564 526 996.5 C521.19823473 1000.42612578 516.37014078 1004.30189623 511.4375 1008.0625 C505.32077805 1012.72831412 499.30953896 1017.51762969 493.3125 1022.3359375 C492.74402344 1022.78678711 492.17554688 1023.23763672 491.58984375 1023.70214844 C490.1396005 1024.88603866 488.75299012 1026.14680373 487.375 1027.4140625 C485 1029 485 1029 482.640625 1029.109375 C478.77024457 1027.48335719 475.92037928 1024.96529718 472.75 1022.25 C471.31825941 1021.05376808 469.88460446 1019.85982435 468.44921875 1018.66796875 C467.71364746 1018.05614746 466.97807617 1017.44432617 466.22021484 1016.81396484 C462.73847181 1013.96930345 459.15308824 1011.26751528 455.5625 1008.5625 C448.93163902 1003.54593066 442.48948173 998.33691159 436.09619141 993.02197266 C430.92679693 988.73390186 425.65552657 984.62386477 420.30859375 980.55859375 C416.47381883 977.61926034 412.73952574 974.5589675 409 971.5 C404.19828472 967.57381116 399.37008807 963.69816923 394.4375 959.9375 C389.11492474 955.87657221 383.87524599 951.72364171 378.65600586 947.53100586 C374.45792147 944.16057615 370.23879339 940.81906085 366 937.5 C361.1430426 933.69571461 356.31277608 929.86002133 351.5 926 C346.6640308 922.12236504 341.8137167 918.26442154 336.9375 914.4375 C336.36241699 913.98616699 335.78733398 913.53483398 335.19482422 913.06982422 C332.32366687 910.81823665 329.4498378 908.57010429 326.57421875 906.32421875 C320.30926469 901.42461222 314.09752977 896.46857073 307.9375 891.4375 C303.15607379 887.5332111 298.34576852 883.68124883 293.4375 879.9375 C288.11492474 875.87657221 282.87524599 871.72364171 277.65600586 867.53100586 C273.45792147 864.16057615 269.23879339 860.81906085 265 857.5 C260.1430426 853.69571461 255.31277608 849.86002133 250.5 846 C245.6640308 842.12236504 240.8137167 838.26442154 235.9375 834.4375 C235.36241699 833.98616699 234.78733398 833.53483398 234.19482422 833.06982422 C231.32366687 830.81823665 228.4498378 828.57010429 225.57421875 826.32421875 C218.6151382 820.88175961 211.73347174 815.35461077 204.89111328 809.76611328 C199.78258042 805.6059375 194.5831367 801.58813392 189.34375 797.59375 C185.50112939 794.63788799 181.75252788 791.56887436 178 788.5 C173.19823246 784.57387237 168.37009043 780.69817104 163.4375 776.9375 C158.11573881 772.87719332 152.87721646 768.72447229 147.65820312 764.53320312 C143.43623679 761.14434834 139.19690158 757.77917948 134.9375 754.4375 C134.36249756 753.98624756 133.78749512 753.53499512 133.19506836 753.07006836 C130.3238633 750.81835634 127.44992789 748.57017465 124.57421875 746.32421875 C117.6151382 740.88175961 110.73347174 735.35461077 103.89111328 729.76611328 C98.78258042 725.6059375 93.5831367 721.58813392 88.34375 717.59375 C84.50112939 714.63788799 80.75252788 711.56887436 77 708.5 C72.19823246 704.57387237 67.37009043 700.69817104 62.4375 696.9375 C57.11492474 692.87657221 51.87524599 688.72364171 46.65600586 684.53100586 C41.88818761 680.70316564 37.08891446 676.91773429 32.27416992 673.14916992 C29.23915472 670.77009722 26.21639924 668.37727351 23.2109375 665.9609375 C22.57027344 665.44595703 21.92960937 664.93097656 21.26953125 664.40039062 C20.07017724 663.43472518 18.87209631 662.46747459 17.67578125 661.49804688 C17.10988281 661.04236328 16.54398438 660.58667969 15.9609375 660.1171875 C15.11804605 659.39854913 15.11804605 659.39854913 14.2581265 658.66539282 C11.98675641 656.87362574 11.98675641 656.87362574 9.03892207 655.62975079 C5.20705576 653.56845689 2.32821338 651.73357712 0 648 C-2.39582614 639.8096853 -1.5646835 630.75260997 -1.4430542 622.31712341 C-1.44828738 619.63632402 -1.45828744 616.95592738 -1.47412419 614.27520901 C-1.49896938 608.44555288 -1.47935857 602.61736855 -1.4304657 596.78788376 C-1.35796911 588.1200186 -1.35444242 579.45307919 -1.36496956 570.78496612 C-1.38072863 556.20352022 -1.34067036 541.62272734 -1.26876068 527.04147148 C-1.19774759 512.60500291 -1.15156775 498.16880634 -1.13852692 483.73216438 C-1.13770204 482.83443033 -1.13687717 481.93669627 -1.13602729 481.01175815 C-1.13196728 476.45258992 -1.12835068 471.89342145 -1.12490478 467.33425272 C-1.09970212 435.04450876 -1.01886059 402.75512004 -0.90527344 370.46557617 C-0.79505494 339.09743132 -0.71005434 307.72938369 -0.65917969 276.36108398 C-0.65760137 275.39411949 -0.65602306 274.42715499 -0.65439692 273.43088854 C-0.63857463 263.72020269 -0.62326487 254.00951608 -0.60833061 244.29882883 C-0.57789633 224.51717159 -0.54404131 204.73552069 -0.50811768 184.95387268 C-0.5064702 184.04435147 -0.50482272 183.13483026 -0.50312531 182.19774779 C-0.39272376 121.46501731 -0.20258206 60.73248438 0 0 Z " fill="#E4451F" transform="translate(0,0)"/>
<path d="M0 0 C2.13710022 1.1269989 2.13710022 1.1269989 4.28930664 2.5534668 C5.10528824 3.08880539 5.92126984 3.62414398 6.76197815 4.17570496 C7.63587692 4.76096451 8.5097757 5.34622406 9.41015625 5.94921875 C10.33227402 6.55828568 11.25439178 7.1673526 12.20445251 7.7948761 C14.16457718 9.09169077 16.12216234 10.39235081 18.07739258 11.6965332 C20.9948717 13.64239419 23.91941278 15.57718799 26.84570312 17.50976562 C36.02728655 23.58952333 45.13762111 29.75460531 54.13671875 36.1015625 C63.30511298 42.56732607 72.63287017 48.76541434 82.0227356 54.90380859 C97.44521001 64.9904489 112.79965998 75.17346812 128.0625 85.5 C128.87509277 86.04959381 129.68768555 86.59918762 130.52490234 87.16543579 C135.50338517 90.53330171 140.47979886 93.90421525 145.45562744 97.27600098 C153.38346532 102.6476926 161.31463114 108.01443956 169.25 113.375 C170.13103394 113.97035553 171.01206787 114.56571106 171.9197998 115.17910767 C187.96302343 126.01406182 204.10954941 136.68871265 220.31152344 147.28466797 C230.03092332 153.6514705 239.61845763 160.14369587 249 167 C245.45369357 175.7243917 241.61823095 184.28445433 237.625 192.8125 C237.04316 194.0595511 236.46153761 195.30670375 235.88012695 196.55395508 C234.75197625 198.9731185 233.6222663 201.39153298 232.49169922 203.80957031 C231.28511153 206.39020662 230.08072814 208.97182999 228.87890625 211.5546875 C225.64001179 218.51354487 222.37696369 225.46099213 219.10229492 232.40307617 C217.54600693 235.70463294 215.99594666 239.00873428 214.45947266 242.31958008 C210.52277947 250.80148298 206.48268721 259.22739332 202.37921143 267.62973022 C196.48518961 279.70740593 190.70813912 291.82917523 185.08227539 304.03442383 C180.39861824 314.18294545 175.61007468 324.27995684 170.8125 334.375 C164.74988219 347.13625903 158.78678579 359.93375857 152.98779297 372.81738281 C150.66470599 377.95045192 148.26777656 383.04912488 145.86962891 388.14746094 C144.93391824 390.14077158 144.00387195 392.13667003 143.07421875 394.1328125 C139.91156259 400.90827544 136.69755084 407.64521529 133.3125 414.3125 C127.82856846 425.15222096 122.82025823 436.22052502 117.73193359 447.24951172 C114.87383851 453.44221925 111.99824604 459.62681234 109.125 465.8125 C108.61428955 466.91303711 108.1035791 468.01357422 107.57739258 469.14746094 C106.57128635 471.31516106 105.56452992 473.48255951 104.55712891 475.6496582 C103.47973797 477.96778862 102.40399992 480.28668769 101.32958984 482.60620117 C97.43811649 490.99351072 93.43640078 499.32216305 89.37893677 507.63027954 C83.45995467 519.75918195 77.65845609 531.93279086 72.00537109 544.18823242 C67.56025815 553.81931047 63.03847265 563.41263827 58.5 573 C52.93578909 584.75747579 47.41632604 596.53350598 41.95532227 608.33935547 C37.4991916 617.95830377 32.97244279 627.54302207 28.4375 637.125 C18.09106672 658.99215764 7.97767156 680.96206905 -2 703 C-2.66 703 -3.32 703 -4 703 C-4.32049316 702.30890137 -4.64098633 701.61780273 -4.97119141 700.90576172 C-16.59130509 675.85284595 -28.24966801 650.81851511 -40.01968384 625.83563232 C-44.98777522 615.2898057 -49.93119414 604.73281989 -54.85449219 594.16601562 C-59.88360383 583.37378288 -64.9481709 572.59849382 -70.02352905 561.82794189 C-74.64421487 552.02148714 -79.23932256 542.20369987 -83.8125 532.375 C-89.74105829 519.63843338 -95.76666609 506.94901861 -101.80532837 494.26434326 C-107.26998837 482.78277319 -112.67759093 471.27848285 -118.00805664 459.73388672 C-122.7653397 449.45421021 -127.63028778 439.22677641 -132.5 429 C-137.88543464 417.6901662 -143.24879618 406.3729326 -148.5 395 C-153.73209406 383.66957673 -159.07304525 372.39321213 -164.4375 361.125 C-170.58262665 348.21683977 -176.68597085 335.29160078 -182.71142578 322.32714844 C-187.91147402 311.15286623 -193.20279982 300.02250518 -198.49313354 288.89074707 C-203.11002956 279.17094051 -207.7204924 269.45246565 -212.01293945 259.58349609 C-214.11002078 254.80547022 -216.42065837 250.14853958 -218.7734375 245.4921875 C-223.26380178 236.59012283 -227.35655522 227.52681575 -231.42724609 218.42724609 C-235.19546789 210.01663849 -239.09603675 201.70511161 -243.2538147 193.47941589 C-245.60845992 188.81400061 -247.83094239 184.12114552 -249.875 179.3125 C-250.15601563 178.66345703 -250.43703125 178.01441406 -250.7265625 177.34570312 C-252.2051638 173.91771946 -253.61972571 170.46846702 -255 167 C-244.47360011 159.29740492 -233.65712461 152.08246712 -222.74435425 144.94091797 C-217.82335121 141.71939155 -212.90941632 138.48713056 -207.99609375 135.25390625 C-206.54726555 134.30053879 -206.54726555 134.30053879 -205.06916809 133.32791138 C-197.65252938 128.44199948 -190.27620411 123.50222428 -182.9375 118.5 C-181.87257324 117.77417725 -180.80764648 117.04835449 -179.71044922 116.30053711 C-178.02701644 115.15273214 -176.34370509 114.00475024 -174.66064453 112.85639954 C-165.95752316 106.92072201 -157.2302998 101.02060311 -148.5 95.125 C-147.59703186 94.51513245 -146.69406372 93.90526489 -145.76373291 93.2769165 C-129.54549409 82.33013669 -113.23219239 71.53113966 -96.8671875 60.80517578 C-88.56923167 55.36252035 -80.30625405 49.88258876 -72.1446991 44.23713684 C-63.94694389 38.56837116 -55.67571197 33.00843231 -47.41015625 27.43920898 C-43.71669113 24.95045843 -40.02469121 22.45953772 -36.33270264 19.96859741 C-34.52498097 18.7509193 -32.71579566 17.53541099 -30.90509033 16.32217407 C-26.51441086 13.37972419 -22.14569006 10.41313601 -17.81542969 7.38232422 C-16.99609955 6.81625961 -16.17676941 6.25019501 -15.33261108 5.66697693 C-13.79298627 4.60257248 -12.26119006 3.5267203 -10.73892212 2.43763733 C-10.05470184 1.96829269 -9.37048157 1.49894806 -8.66552734 1.01538086 C-7.78010757 0.39245399 -7.78010757 0.39245399 -6.87680054 -0.24305725 C-4.22535534 -1.3124262 -2.70267581 -0.83619794 0 0 Z " fill="#FAC5BA" transform="translate(486,325)"/>
</svg>
